{
  "asset": {
    "version": "2.0",
    "generator": "THREE.GLTFExporter"
  },
  "scenes": [
    {
      "name": "Scene",
      "nodes": [
        1,
        3,
        5,
        7,
        9,
        11
      ]
    }
  ],
  "scene": 0,
  "nodes": [
    {
      "matrix": [
        0.009999999776482582,
        0,
        0,
        0,
        0,
        0.009999999776482582,
        0,
        0,
        0,
        0,
        0.009999999776482582,
        0,
        -0.03470977768301964,
        0.003845683764666319,
        0.1110062301158905,
        1
      ],
      "name": "Shape003",
      "extras": {
        "name": "Shape003"
      },
      "mesh": 0
    },
    {
      "name": "fragment logo left under.glb.gltf",
      "children": [
        0
      ]
    },
    {
      "matrix": [
        0.009999999776482582,
        0,
        0,
        0,
        0,
        0.009999999776482582,
        0,
        0,
        0,
        0,
        0.009999999776482582,
        0,
        0.028992006555199623,
        0.0031106695532798767,
        0.11683730781078339,
        1
      ],
      "name": "Shape010",
      "extras": {
        "name": "Shape010"
      },
      "mesh": 1
    },
    {
      "name": "fragment logo right under.glb.gltf",
      "children": [
        2
      ]
    },
    {
      "matrix": [
        0.009999999776482582,
        0,
        0,
        0,
        0,
        0.009999999776482582,
        0,
        0,
        0,
        0,
        0.009999999776482582,
        0,
        0.10119890421628952,
        0.0031557902693748474,
        0.024071799591183662,
        1
      ],
      "name": "Shape009",
      "extras": {
        "name": "Shape009"
      },
      "mesh": 2
    },
    {
      "name": "fragment logo right.glb.gltf",
      "children": [
        4
      ]
    },
    {
      "matrix": [
        0.009999999776482582,
        0,
        0,
        0,
        0,
        0.009999999776482582,
        0,
        0,
        0,
        0,
        0.009999999776482582,
        0,
        0.018202580511569977,
        0.009243454784154892,
        -0.12786318361759186,
        1
      ],
      "name": "Shape008",
      "extras": {
        "name": "Shape008"
      },
      "mesh": 3
    },
    {
      "name": "fragment logo right upside.glb.gltf",
      "children": [
        6
      ]
    },
    {
      "matrix": [
        0.009999999776482582,
        0,
        0,
        0,
        0,
        0.009999999776482582,
        0,
        0,
        0,
        0,
        0.009999999776482582,
        0,
        -0.10311450064182281,
        0.005094352178275585,
        0.02486729621887207,
        1
      ],
      "name": "Shape004",
      "extras": {
        "name": "Shape004"
      },
      "mesh": 4
    },
    {
      "name": "fragment logo left.glb.gltf",
      "children": [
        8
      ]
    },
    {
      "matrix": [
        0.009999999776482582,
        0,
        0,
        0,
        0,
        0.009999999776482582,
        0,
        0,
        0,
        0,
        0.009999999776482582,
        0,
        -0.021454080939292908,
        0.008307927288115025,
        -0.1279248148202896,
        1
      ],
      "name": "Shape002",
      "extras": {
        "name": "Shape002"
      },
      "mesh": 5
    },
    {
      "name": "fragment logo left upside.glb.gltf",
      "children": [
        10
      ]
    }
  ],
  "bufferViews": [
    {
      "buffer": 0,
      "byteOffset": 0,
      "byteLength": 624,
      "target": 34962,
      "byteStride": 12
    },
    {
      "buffer": 0,
      "byteOffset": 624,
      "byteLength": 624,
      "target": 34962,
      "byteStride": 12
    },
    {
      "buffer": 0,
      "byteOffset": 1248,
      "byteLength": 192,
      "target": 34963
    },
    {
      "buffer": 0,
      "byteOffset": 1440,
      "byteLength": 648,
      "target": 34962,
      "byteStride": 12
    },
    {
      "buffer": 0,
      "byteOffset": 2088,
      "byteLength": 648,
      "target": 34962,
      "byteStride": 12
    },
    {
      "buffer": 0,
      "byteOffset": 2736,
      "byteLength": 192,
      "target": 34963
    },
    {
      "buffer": 0,
      "byteOffset": 2928,
      "byteLength": 672,
      "target": 34962,
      "byteStride": 12
    },
    {
      "buffer": 0,
      "byteOffset": 3600,
      "byteLength": 672,
      "target": 34962,
      "byteStride": 12
    },
    {
      "buffer": 0,
      "byteOffset": 4272,
      "byteLength": 192,
      "target": 34963
    },
    {
      "buffer": 0,
      "byteOffset": 4464,
      "byteLength": 696,
      "target": 34962,
      "byteStride": 12
    },
    {
      "buffer": 0,
      "byteOffset": 5160,
      "byteLength": 696,
      "target": 34962,
      "byteStride": 12
    },
    {
      "buffer": 0,
      "byteOffset": 5856,
      "byteLength": 192,
      "target": 34963
    },
    {
      "buffer": 0,
      "byteOffset": 6048,
      "byteLength": 648,
      "target": 34962,
      "byteStride": 12
    },
    {
      "buffer": 0,
      "byteOffset": 6696,
      "byteLength": 648,
      "target": 34962,
      "byteStride": 12
    },
    {
      "buffer": 0,
      "byteOffset": 7344,
      "byteLength": 192,
      "target": 34963
    },
    {
      "buffer": 0,
      "byteOffset": 7536,
      "byteLength": 672,
      "target": 34962,
      "byteStride": 12
    },
    {
      "buffer": 0,
      "byteOffset": 8208,
      "byteLength": 672,
      "target": 34962,
      "byteStride": 12
    },
    {
      "buffer": 0,
      "byteOffset": 8880,
      "byteLength": 192,
      "target": 34963
    }
  ],
  "buffers": [
    {
      "byteLength": 9072,
      "uri": "data:application/octet-stream;base64,"
    }
  ],
  "accessors": [
    {
      "bufferView": 0,
      "componentType": 5126,
      "count": 52,
      "max": [
        2.111173629760742,
        1.410033106803894,
        4.292017936706543
      ],
      "min": [
        -8.748493194580078,
        -0.1932871788740158,
        -13.263825416564941
      ],
      "type": "VEC3"
    },
    {
      "bufferView": 1,
      "componentType": 5126,
      "count": 52,
      "max": [
        0.9937758445739746,
        0.9959896802902222,
        0.6804517507553101
      ],
      "min": [
        -0.9911273121833801,
        -1,
        -0.808102011680603
      ],
      "type": "VEC3"
    },
    {
      "bufferView": 2,
      "componentType": 5123,
      "count": 96,
      "max": [
        51
      ],
      "min": [
        0
      ],
      "type": "SCALAR"
    },
    {
      "bufferView": 3,
      "componentType": 5126,
      "count": 54,
      "max": [
        9.337859153747559,
        1.4100315570831299,
        3.7396440505981445
      ],
      "min": [
        -1.521806240081787,
        -0.11927546560764313,
        -13.81619930267334
      ],
      "type": "VEC3"
    },
    {
      "bufferView": 4,
      "componentType": 5126,
      "count": 54,
      "max": [
        0.9911273717880249,
        0.9687954783439636,
        0.6804516315460205
      ],
      "min": [
        -0.9937759041786194,
        -1,
        -0.808102011680603
      ],
      "type": "VEC3"
    },
    {
      "bufferView": 5,
      "componentType": 5123,
      "count": 96,
      "max": [
        53
      ],
      "min": [
        0
      ],
      "type": "SCALAR"
    },
    {
      "bufferView": 6,
      "componentType": 5126,
      "count": 56,
      "max": [
        1.8175840377807617,
        1.4100301265716553,
        5.399778366088867
      ],
      "min": [
        -9.245381355285645,
        -0.10358759760856628,
        -21.404035568237305
      ],
      "type": "VEC3"
    },
    {
      "bufferView": 7,
      "componentType": 5126,
      "count": 56,
      "max": [
        0.8998292088508606,
        0.9429797530174255,
        0.8303107619285583
      ],
      "min": [
        -0.9783263206481934,
        -1,
        -0.9663471579551697
      ],
      "type": "VEC3"
    },
    {
      "bufferView": 8,
      "componentType": 5123,
      "count": 96,
      "max": [
        55
      ],
      "min": [
        0
      ],
      "type": "SCALAR"
    },
    {
      "bufferView": 9,
      "componentType": 5126,
      "count": 58,
      "max": [
        6.522522926330566,
        0.8238793015480042,
        29.067214965820312
      ],
      "min": [
        -1.239119529724121,
        -0.7054279446601868,
        -5.723090171813965
      ],
      "type": "VEC3"
    },
    {
      "bufferView": 10,
      "componentType": 5126,
      "count": 58,
      "max": [
        0.999296247959137,
        0.9777949452400208,
        0.9925143122673035
      ],
      "min": [
        -1,
        -1,
        -0.36289143562316895
      ],
      "type": "VEC3"
    },
    {
      "bufferView": 11,
      "componentType": 5123,
      "count": 96,
      "max": [
        57
      ],
      "min": [
        0
      ],
      "type": "SCALAR"
    },
    {
      "bufferView": 12,
      "componentType": 5126,
      "count": 54,
      "max": [
        9.454527854919434,
        1.4100327491760254,
        5.289462089538574
      ],
      "min": [
        -1.6084413528442383,
        -0.31426578760147095,
        -21.51435089111328
      ],
      "type": "VEC3"
    },
    {
      "bufferView": 13,
      "componentType": 5126,
      "count": 54,
      "max": [
        0.9783264398574829,
        0.9913632869720459,
        0.8303105235099792
      ],
      "min": [
        -0.908443808555603,
        -1,
        -0.9663472175598145
      ],
      "type": "VEC3"
    },
    {
      "bufferView": 14,
      "componentType": 5123,
      "count": 96,
      "max": [
        53
      ],
      "min": [
        0
      ],
      "type": "SCALAR"
    },
    {
      "bufferView": 15,
      "componentType": 5126,
      "count": 56,
      "max": [
        1.581852912902832,
        1.1078190803527832,
        29.042638778686523
      ],
      "min": [
        -6.179787635803223,
        -0.6519744396209717,
        -5.74766731262207
      ],
      "type": "VEC3"
    },
    {
      "bufferView": 16,
      "componentType": 5126,
      "count": 56,
      "max": [
        1,
        0.9998911023139954,
        0.9925142526626587
      ],
      "min": [
        -0.997784435749054,
        -1,
        -0.36289137601852417
      ],
      "type": "VEC3"
    },
    {
      "bufferView": 17,
      "componentType": 5123,
      "count": 96,
      "max": [
        55
      ],
      "min": [
        0
      ],
      "type": "SCALAR"
    }
  ],
  "materials": [
    {
      "pbrMetallicRoughness": {
        "metallicFactor": 1,
        "roughnessFactor": 1
      },
      "doubleSided": true,
      "name": "Material.001"
    },
    {
      "pbrMetallicRoughness": {
        "metallicFactor": 1,
        "roughnessFactor": 1
      },
      "doubleSided": true,
      "name": "Material.001"
    },
    {
      "pbrMetallicRoughness": {
        "metallicFactor": 1,
        "roughnessFactor": 1
      },
      "doubleSided": true,
      "name": "Material.001"
    },
    {
      "pbrMetallicRoughness": {
        "metallicFactor": 1,
        "roughnessFactor": 1
      },
      "doubleSided": true,
      "name": "Material.001"
    },
    {
      "pbrMetallicRoughness": {
        "metallicFactor": 0,
        "roughnessFactor": 0.3
      }
    },
    {
      "pbrMetallicRoughness": {
        "metallicFactor": 1,
        "roughnessFactor": 1
      },
      "doubleSided": true,
      "name": "Material.001"
    }
  ],
  "meshes": [
    {
      "primitives": [
        {
          "mode": 4,
          "attributes": {
            "POSITION": 0,
            "NORMAL": 1
          },
          "indices": 2,
          "material": 0
        }
      ]
    },
    {
      "primitives": [
        {
          "mode": 4,
          "attributes": {
            "POSITION": 3,
            "NORMAL": 4
          },
          "indices": 5,
          "material": 1
        }
      ]
    },
    {
      "primitives": [
        {
          "mode": 4,
          "attributes": {
            "POSITION": 6,
            "NORMAL": 7
          },
          "indices": 8,
          "material": 2
        }
      ]
    },
    {
      "primitives": [
        {
          "mode": 4,
          "attributes": {
            "POSITION": 9,
            "NORMAL": 10
          },
          "indices": 11,
          "material": 3
        }
      ]
    },
    {
      "primitives": [
        {
          "mode": 4,
          "attributes": {
            "POSITION": 12,
            "NORMAL": 13
          },
          "indices": 14,
          "material": 4
        }
      ]
    },
    {
      "primitives": [
        {
          "mode": 4,
          "attributes": {
            "POSITION": 15,
            "NORMAL": 16
          },
          "indices": 17,
          "material": 5
        }
      ]
    }
  ]
}